<svg width="30" height="29" viewBox="0 0 30 29" fill="none" xmlns="http://www.w3.org/2000/svg">
<g clip-path="url(#clip0_279_317)">
<path fill-rule="evenodd" clip-rule="evenodd" d="M15 0C6.7125 0 0 6.65288 0 14.8668C0 21.4453 4.29375 27.0018 10.2562 28.9716C11.0062 29.1017 11.2875 28.6557 11.2875 28.2654C11.2875 27.9123 11.2688 26.7416 11.2688 25.4965C7.5 26.1841 6.525 24.5859 6.225 23.7496C6.05625 23.3222 5.325 22.0028 4.6875 21.6497C4.1625 21.371 3.4125 20.6834 4.66875 20.6648C5.85 20.6462 6.69375 21.7426 6.975 22.1886C8.325 24.4372 10.4813 23.8054 11.3438 23.4151C11.475 22.4488 11.8687 21.7984 12.3 21.4267C8.9625 21.055 5.475 19.7728 5.475 14.0863C5.475 12.4695 6.05625 11.1315 7.0125 10.0908C6.8625 9.71914 6.3375 8.1953 7.1625 6.15112C7.1625 6.15112 8.41875 5.76087 11.2875 7.67497C12.4875 7.34046 13.7625 7.17321 15.0375 7.17321C16.3125 7.17321 17.5875 7.34046 18.7875 7.67497C21.6563 5.74229 22.9125 6.15112 22.9125 6.15112C23.7375 8.1953 23.2125 9.71914 23.0625 10.0908C24.0188 11.1315 24.6 12.4509 24.6 14.0863C24.6 19.7914 21.0938 21.055 17.7563 21.4267C18.3 21.8913 18.7688 22.7833 18.7688 24.1771C18.7688 26.1655 18.75 27.7637 18.75 28.2654C18.75 28.6557 19.0313 29.1203 19.7813 28.9716C25.7063 27.0018 30 21.4267 30 14.8668C30 6.65288 23.2875 0 15 0Z" fill="#006CEC"/>
<g clip-path="url(#clip1_279_317)">
<path d="M23.715 22.4875C23.735 22.3275 23.75 22.165 23.75 22C23.75 21.835 23.735 21.6725 23.715 21.5125L24.7725 20.685C24.8675 20.61 24.895 20.475 24.8325 20.365L23.8325 18.6325C23.77 18.525 23.64 18.48 23.5275 18.525L22.2825 19.0275C22.025 18.83 21.7425 18.6625 21.4375 18.535L21.25 17.21C21.2275 17.0925 21.125 17 21 17H19C18.875 17 18.7725 17.0925 18.7525 17.21L18.565 18.535C18.26 18.6625 17.9775 18.8275 17.72 19.0275L16.475 18.525C16.3625 18.4825 16.2325 18.525 16.17 18.6325L15.17 20.365C15.1075 20.4725 15.135 20.6075 15.23 20.685L16.285 21.5125C16.265 21.6725 16.25 21.835 16.25 22C16.25 22.165 16.265 22.3275 16.285 22.4875L15.23 23.315C15.135 23.39 15.1075 23.525 15.17 23.635L16.17 25.3675C16.2325 25.475 16.3625 25.52 16.475 25.475L17.72 24.9725C17.9775 25.17 18.26 25.3375 18.565 25.465L18.7525 26.79C18.7725 26.9075 18.875 27 19 27H21C21.125 27 21.2275 26.9075 21.2475 26.79L21.435 25.465C21.74 25.3375 22.0225 25.1725 22.28 24.9725L23.525 25.475C23.6375 25.5175 23.7675 25.475 23.83 25.3675L24.83 23.635C24.8925 23.5275 24.865 23.3925 24.77 23.315L23.715 22.4875ZM20 23.75C19.0325 23.75 18.25 22.9675 18.25 22C18.25 21.0325 19.0325 20.25 20 20.25C20.9675 20.25 21.75 21.0325 21.75 22C21.75 22.9675 20.9675 23.75 20 23.75Z" fill="white"/>
</g>
</g>
<defs>
<clipPath id="clip0_279_317">
<rect width="30" height="29" fill="white"/>
</clipPath>
<clipPath id="clip1_279_317">
<rect width="10" height="10" fill="white" transform="translate(15 17)"/>
</clipPath>
</defs>
</svg>
