<svg width="30" height="30" viewBox="0 0 30 30" fill="none" xmlns="http://www.w3.org/2000/svg">
<g clip-path="url(#clip0_134_13)">
<path d="M3.78947 10.1597H10.3831L5.71184 5.7063C5.39368 5.40315 5.38421 4.89946 5.69052 4.58446L7.47315 2.7521C7.78341 2.43315 8.29499 2.43315 8.60525 2.7521L13.0429 7.31446V0.789472C13.0429 0.353683 13.3966 0 13.8323 0H16.5923C17.0281 0 17.3818 0.353683 17.3818 0.789472V7.31367L21.8202 2.76078C22.1297 2.44342 22.6405 2.44263 22.9507 2.76078L24.7294 4.58367C25.0365 4.89867 25.0271 5.40394 24.7089 5.70709L20.0415 10.1479H26.6328C27.0686 10.1479 27.4223 10.5016 27.4223 10.9373V13.4873C27.4223 13.9231 27.0686 14.2768 26.6328 14.2768H19.9989L24.7081 18.8526C25.0231 19.1589 25.0278 19.6634 24.7184 19.9752L22.9452 21.7618C22.6365 22.0728 22.1344 22.0729 21.8258 21.7626L15.2131 15.1168L8.59815 21.7642C8.29025 22.0736 7.78894 22.0744 7.48025 21.7657L5.70157 19.9871C5.38973 19.6752 5.39368 19.1692 5.70947 18.8629L10.4187 14.2887H3.78947C3.35368 14.2887 3 13.935 3 13.4992V10.9492C3 10.5126 3.35289 10.1597 3.78947 10.1597Z" fill="#006CEC"/>
<path d="M13.8197 20.2019H16.5797C17.0155 20.2019 17.3692 20.5556 17.3692 20.9914V29.2106C17.3692 29.6464 17.0155 30 16.5797 30H13.8197C13.384 30 13.0303 29.6464 13.0303 29.2106V20.9914C13.0303 20.5556 13.384 20.2019 13.8197 20.2019Z" fill="#006CEC"/>
<path d="M17.2476 17.1621L15.7713 15.6787C15.4626 15.3685 14.9605 15.3685 14.6518 15.6787L8.59657 21.764C8.28867 22.0734 7.78736 22.0742 7.47868 21.7655L5.69999 19.9869C5.38815 19.675 5.3921 19.169 5.70789 18.8627L9.0213 15.644C9.52972 15.1498 9.17999 14.2885 8.47104 14.2885H3.78947C3.35368 14.2885 3 13.9348 3 13.499V10.949C3 10.5132 3.35368 10.1595 3.78947 10.1595H8.41104C9.12315 10.1595 9.4713 9.29031 8.95578 8.79847L5.71184 5.70611C5.39368 5.40295 5.38421 4.89927 5.69052 4.58427L7.47315 2.75191C7.78341 2.43296 8.29499 2.43296 8.60525 2.75191L11.6881 5.92085C12.1824 6.42848 13.0437 6.07874 13.0437 5.37058V4.78795" stroke="#006CEC" stroke-width="3" stroke-miterlimit="10" stroke-linecap="round" stroke-linejoin="round"/>
<path d="M13.042 0.789472C13.042 0.353683 13.3957 0 13.8315 0H16.5915C17.0272 0 17.3809 0.353683 17.3809 0.789472V5.37236C17.3809 6.08051 18.2415 6.43025 18.7357 5.92341L21.8193 2.75999C22.1288 2.44263 22.6396 2.44184 22.9499 2.75999L24.7285 4.58289C25.0357 4.89788 25.0262 5.40315 24.708 5.7063L21.4712 8.78603C20.9549 9.27709 21.3022 10.1471 22.0151 10.1471H26.632C27.0678 10.1471 27.4214 10.5008 27.4214 10.9366V13.4866C27.4214 13.9223 27.0678 14.276 26.632 14.276H21.9433C21.2343 14.276 20.8846 15.1373 21.393 15.6315L24.7072 18.8518C25.0222 19.1581 25.027 19.6626 24.7175 19.9744L22.9443 21.761C22.6357 22.0721 22.1336 22.0721 21.8249 21.7618L20.2728 20.2018" stroke="#006CEC" stroke-width="3" stroke-miterlimit="10" stroke-linecap="round" stroke-linejoin="round"/>
<path d="M13.0303 23.1132V20.9919C13.0303 20.5561 13.384 20.2024 13.8197 20.2024H16.5797C17.0155 20.2024 17.3692 20.5561 17.3692 20.9919V29.2103C17.3692 29.6461 17.0155 29.9997 16.5797 29.9997H13.8197C13.384 29.9997 13.0303 29.6461 13.0303 29.2103V27.5808" stroke="#006CEC" stroke-width="3" stroke-miterlimit="10" stroke-linecap="round" stroke-linejoin="round"/>
</g>
<defs>
<clipPath id="clip0_134_13">
<rect width="30" height="30" fill="white"/>
</clipPath>
</defs>
</svg>
