<svg width="50" height="56" viewBox="0 0 50 56" fill="none" xmlns="http://www.w3.org/2000/svg">
<g clip-path="url(#clip0_225_48)">
<path d="M49.5951 0.291504H0.405273L4.74555 49.8748L25.0002 55.7082L45.2548 49.8748L49.5951 0.291504Z" fill="#0277BD"/>
<path d="M25 4.6665V51.1873L41.2037 46.5207L44.8206 4.6665H25Z" fill="#039BE5"/>
<path d="M38.1655 11.9585H25V17.7918H32.0891L31.6551 23.6252H25V29.4585H31.3657L30.9317 36.021L25 38.0627V44.1877L36.4294 40.396L37.4421 23.6252L38.1655 11.9585Z" fill="white"/>
<path d="M25.0001 11.9585V17.7918H12.124L11.6899 11.9585H25.0001ZM18.345 23.6252L18.6344 29.4585H25.0001V23.6252H18.345ZM18.9237 32.3752H13.1367L13.5707 40.396L25.0001 44.1877V38.0627L19.0684 36.021L18.9237 32.3752Z" fill="#EEEEEE"/>
</g>
<defs>
<clipPath id="clip0_225_48">
<rect width="50" height="56" fill="white"/>
</clipPath>
</defs>
</svg>
