<svg width="50" height="56" viewBox="0 0 50 56" fill="none" xmlns="http://www.w3.org/2000/svg">
<g clip-path="url(#clip0_225_43)">
<path d="M49.5951 0.291504H0.405273L4.74548 49.8748L25.0002 55.7082L45.2548 49.8748L49.5951 0.291504Z" fill="#E65100"/>
<path d="M25 4.6665V51.1873L41.2037 46.5207L44.8206 4.6665H25Z" fill="#FF6D00"/>
<path d="M25 29.4585V23.6253H37.4421L36.4294 40.396L25 44.1878V38.0628L30.9317 36.021L31.3657 29.4585H25ZM37.8761 17.7919L38.3101 11.9585H25V17.7919H37.8761Z" fill="white"/>
<path d="M24.9999 38.0628V44.1878L13.5706 40.396L12.9918 32.3753H18.7789L19.0682 36.021L24.9999 38.0628ZM17.9109 17.7919H24.9999V11.9585H11.8345L12.8471 29.4585H24.9999V23.6253H18.3449L17.9109 17.7919Z" fill="#EEEEEE"/>
</g>
<defs>
<clipPath id="clip0_225_43">
<rect width="50" height="56" fill="white"/>
</clipPath>
</defs>
</svg>
