<svg width="50" height="50" viewBox="0 0 50 50" fill="none" xmlns="http://www.w3.org/2000/svg">
<path d="M42.7084 5.20825H7.29175L10.4167 40.6249L25.0001 44.7916L39.5834 40.6249L42.7084 5.20825Z" fill="#E65100"/>
<path d="M25 8.33325V41.5624L36.6667 38.2291L39.2708 8.33325H25Z" fill="#FF6D00"/>
<path d="M25 26.0417V21.8751H33.9583L33.2292 33.8542L25 36.5626V32.1876L29.2708 30.7292L29.5833 26.0417H25ZM34.2708 17.7084L34.5833 13.5417H25V17.7084H34.2708Z" fill="white"/>
<path d="M24.9999 32.1876V36.5626L16.7708 33.8542L16.3541 28.1251H20.5208L20.7291 30.7292L24.9999 32.1876ZM19.8958 17.7084H24.9999V13.5417H15.5208L16.2499 26.0417H24.9999V21.8751H20.2083L19.8958 17.7084Z" fill="#EEEEEE"/>
</svg>
