<svg width="50" height="50" viewBox="0 0 50 50" fill="none" xmlns="http://www.w3.org/2000/svg">
<path fill-rule="evenodd" clip-rule="evenodd" d="M25 13.619C18.7134 13.619 13.6068 18.7215 13.6068 25.0122C13.6068 31.307 18.7093 36.4095 25 36.4095C31.2948 36.4095 36.3973 31.307 36.3973 25.0122C36.3932 18.7215 31.2907 13.623 25 13.619ZM47.758 14.6525L47.5383 14.1764L47.1965 14.5752C46.346 15.5396 45.2677 16.2842 44.0633 16.7318L43.7215 16.8538L43.8558 17.1956C44.8893 19.6818 45.4224 22.3551 45.4224 25.0407C45.4224 36.3241 36.2712 45.4834 24.9837 45.4834C13.6963 45.4834 4.54915 36.3241 4.54915 25.0366C4.54915 13.7492 13.7004 4.59798 24.9878 4.59798C28.0233 4.59798 31.014 5.27344 33.7565 6.57552L34.0739 6.72607L34.2082 6.38428C34.7168 5.20833 35.5143 4.16667 36.5194 3.36507L36.9222 3.02327L36.4624 2.7832C32.9468 0.956218 29.0283 0 25.057 0C25.0448 0 25.0163 0 24.9919 0C11.1938 0 0 11.1938 0 25C0 38.8062 11.202 50 25 50C38.8102 50 50 38.8062 50 25C50 21.4193 49.235 17.8752 47.7458 14.624L47.758 14.6525ZM46.5495 9.43604C46.5495 6.57145 44.2301 4.24805 41.3615 4.24805C38.4969 4.24805 36.1735 6.57145 36.1735 9.43604C36.1735 12.3088 38.4969 14.6322 41.3615 14.6322C44.2342 14.6322 46.5495 12.3047 46.5495 9.43604Z" fill="#478AFF"/>
</svg>
