<svg width="50" height="50" viewBox="0 0 50 50" fill="none" xmlns="http://www.w3.org/2000/svg">
<g clip-path="url(#clip0_225_40)">
<path d="M0.329102 49.6712V0.329102H49.6712V49.6712H0.329102Z" fill="#FFD600"/>
<path d="M32.5907 37.2629C33.5391 38.8035 34.5698 40.2796 36.7532 40.2796C38.5871 40.2796 39.5493 39.3682 39.5493 38.1072C39.5493 36.5982 38.5542 36.0622 36.5367 35.1837L35.4306 34.7122C32.2384 33.358 30.1153 31.6612 30.1153 28.077C30.1153 24.7739 32.6441 22.2602 36.5956 22.2602C39.4095 22.2602 41.4311 23.2347 42.8895 25.7867L39.4437 27.9893C38.6858 26.6352 37.8662 26.102 36.5956 26.102C35.299 26.102 34.478 26.9202 34.478 27.9893C34.478 29.3106 35.3004 29.8451 37.1987 30.6634L38.3048 31.1349C42.0671 32.7371 44.1888 34.3736 44.1888 38.0524C44.1888 42.0162 41.0583 44.1886 36.856 44.1886C32.7455 44.1886 30.4114 42.1258 29.112 39.5724L32.5907 37.2629ZM16.7107 37.3753C17.4043 38.6171 18.4583 39.5724 19.9742 39.5724C21.4243 39.5724 22.259 38.9995 22.259 36.7722V22.2588H26.8272V37.474C26.8272 42.0888 24.1504 44.1886 20.2414 44.1886C16.7094 44.1886 14.16 41.7955 13.1211 39.5724L16.7107 37.3753Z" fill="#000001"/>
</g>
<defs>
<clipPath id="clip0_225_40">
<rect width="50" height="50" fill="white"/>
</clipPath>
</defs>
</svg>
