<svg width="38" height="50" viewBox="0 0 38 50" fill="none" xmlns="http://www.w3.org/2000/svg">
<g clip-path="url(#clip0_225_59)">
<path d="M18.5669 26.1137C17.3324 24.1184 16.4368 22.4641 15.1961 19.3491C13.0982 14.0874 27.9556 9.33293 21.9315 0.197266C24.5427 6.50803 12.5589 10.4093 11.4456 15.6648C10.4276 20.4986 18.5607 26.1137 18.5669 26.1137Z" fill="#F44336"/>
<path d="M18.8489 16.6545C18.6114 19.7745 21.6061 21.4375 21.6927 23.7167C21.7619 25.5719 19.9028 27.1183 19.9028 27.1183C19.9028 27.1183 23.2772 26.4536 24.3299 23.6237C25.4989 20.4814 22.0613 18.3298 22.4151 15.8137C22.7453 13.4104 29.8753 8.93994 29.8753 8.93994C29.8753 8.93994 19.3845 9.63687 18.8489 16.6545Z" fill="#F44336"/>
<path d="M28.9998 26.3084C31.1694 25.8199 32.9989 27.205 32.9989 28.801C32.9989 32.3985 28.025 35.7988 28.025 35.7988C28.025 35.7988 35.7252 34.8786 35.7252 28.9721C35.7252 25.0659 31.9438 24.0899 28.9998 26.3084ZM25.3445 29.2102C25.3445 29.2102 27.7455 27.4952 28.385 26.8516C22.4933 28.1053 9.04111 28.274 9.04111 27.1852C9.04111 26.182 13.3792 25.1539 13.3792 25.1539C13.3792 25.1539 3.76416 25.015 3.76416 27.8585C3.76416 30.8223 16.3504 31.0344 25.3445 29.2102Z" fill="#1565C0"/>
<path d="M23.8673 31.9086C18.2898 33.7675 8.01667 33.1735 11.0596 30.6772C9.57773 30.6772 7.38086 31.8714 7.38086 33.0198C7.38086 35.3226 18.4914 37.1009 26.7148 33.7291L23.8673 31.9086Z" fill="#1565C0"/>
<path d="M12.4269 35.8374C10.4032 35.8374 9.09326 37.1444 9.09326 38.0968C9.09326 41.0619 21.1662 41.3607 25.9496 38.351L22.9091 36.3272C19.3354 37.9021 10.3587 38.1191 12.4269 35.8374Z" fill="#1565C0"/>
<path d="M34.1913 40.6646C34.1913 39.5039 32.8863 38.9571 32.4187 38.6954C35.1747 45.3583 4.81309 44.8412 4.81309 40.9077C4.81309 40.0136 7.04831 39.1381 9.11406 39.5523L7.35755 38.5119C3.24089 37.8645 0.445312 39.6788 0.445312 41.1421C0.445312 47.9662 34.1913 47.6376 34.1913 40.6646Z" fill="#1565C0"/>
<path d="M37.5545 43.1104C32.4259 48.1885 19.4216 50.0387 6.34424 46.9013C19.4216 52.4853 37.4926 49.3405 37.5545 43.1104Z" fill="#1565C0"/>
</g>
<defs>
<clipPath id="clip0_225_59">
<rect width="38" height="50" fill="white"/>
</clipPath>
</defs>
</svg>
