<svg width="50" height="34" viewBox="0 0 50 34" fill="none" xmlns="http://www.w3.org/2000/svg">
<path d="M48.9028 0.375874C48.1301 0.400565 48.3745 0.623217 46.7048 1.03412C45.0187 1.44906 42.9591 1.32182 41.1434 2.0833C35.7233 4.3564 34.6358 12.1255 29.7084 14.9086C26.0253 16.989 22.3094 17.1549 18.9685 18.2018C16.773 18.8902 14.3713 20.3021 12.3821 22.0163C10.8381 23.3474 10.7978 24.5177 9.18449 26.1872C7.45888 27.9728 2.3262 26.2173 0 28.9503C0.749357 29.708 1.07788 29.9202 2.55463 29.7237C2.24889 30.3031 0.446608 30.7915 0.799407 31.644C1.17063 32.541 5.52778 33.149 9.48861 30.7577C11.3332 29.644 12.8025 28.0388 15.6753 27.6556C19.3929 27.1601 23.6755 27.9734 27.9792 28.5941C27.3411 30.4968 26.0599 31.7621 25.0336 33.2775C24.7158 33.6198 25.6719 33.6582 26.7627 33.4513C28.725 32.9661 30.1391 32.5755 31.62 31.7135C33.4393 30.6544 33.715 27.939 35.9472 27.3515C37.191 29.2631 40.5737 29.7147 42.6727 28.1857C40.8308 27.6643 40.3218 23.7439 40.9435 22.0163C41.5324 20.3811 42.1144 17.7653 42.7074 15.6037C43.3442 13.2822 43.5791 10.3562 44.3497 9.17369C45.5091 7.39456 46.7902 6.7836 47.9024 5.78037C49.0146 4.77713 50.0326 3.80057 49.9992 1.50496C49.9884 0.765556 49.6061 0.353398 48.9028 0.375874Z" fill="#002B64"/>
<path d="M47.2472 1.73584C47.4324 2.36711 47.7221 2.65682 48.9747 2.7727C48.7917 4.36071 47.7324 5.22929 46.5447 6.06267C45.4995 6.79568 44.3545 7.50152 43.6187 8.64651C42.8649 9.8195 42.3864 13.8339 41.2176 17.7984C40.2073 21.2239 38.6817 24.6109 36.0175 26.0949C35.7391 25.3944 36.053 24.1013 35.4993 23.6763C35.1411 24.6979 34.7361 25.6727 34.2617 26.5787C32.6984 29.5668 30.3838 31.8041 26.5158 32.4872C28.3511 30.0037 30.106 27.439 30.1439 23.1584C28.8523 23.4379 28.8797 26.4889 27.5526 27.3045C26.7018 27.3971 25.8399 27.3966 24.9724 27.3444C21.4099 27.131 17.7554 26.0603 14.4227 27.1296C12.1535 27.8579 10.2977 29.5759 8.37618 30.4093C6.11782 31.3888 4.40755 31.7916 1.59526 31.3888C1.23818 30.9078 3.65346 30.287 3.50902 29.2427C2.40839 29.121 1.76936 29.3877 0.812622 28.953C0.918249 28.7583 1.0735 28.5962 1.26895 28.4611C3.02247 27.2474 8.0033 28.1745 9.33625 26.8656C10.1591 26.0583 10.6989 25.2133 11.2578 24.3919C11.7998 23.5948 12.3601 22.8199 13.2137 22.1216C13.5289 21.8638 13.8716 21.609 14.2353 21.3603C15.69 20.3647 17.4895 19.4618 19.2605 18.8394C21.673 17.9913 24.1177 17.9214 26.689 16.9389C28.2776 16.3318 30.0051 15.5819 31.4131 14.5325C31.7475 14.283 32.0638 14.0171 32.3563 13.7321C36.377 9.81257 37.1741 2.89857 43.4471 2.25427C44.2056 2.17637 44.8267 2.2016 45.3919 2.18441C46.0434 2.165 46.6201 2.08932 47.2472 1.73584ZM39.5999 23.8646C39.6747 25.0628 40.3703 27.4401 40.9844 28.0178C39.7818 28.3103 37.71 27.8271 37.1785 26.9787C37.4516 25.7539 38.8727 24.6342 39.5999 23.8646Z" fill="#C49A6C"/>
<path d="M47.699 3.07752C47.4572 3.58465 46.9943 4.2385 46.9943 5.52946C46.9924 5.7511 46.8261 5.90292 46.8232 5.56124C46.8357 4.29951 47.1697 3.75407 47.5245 3.03722C47.6894 2.7435 47.7887 2.86467 47.699 3.07752ZM47.4555 2.88653C47.1703 3.37039 46.4835 4.25297 46.37 5.53911C46.349 5.75961 46.1697 5.89611 46.1969 5.55528C46.3206 4.2998 46.8695 3.51398 47.2861 2.8309C47.4751 2.55307 47.5639 2.68248 47.4555 2.88653ZM47.2336 2.63339C46.9086 3.09142 45.8515 4.15138 45.6305 5.4236C45.5907 5.64127 45.4006 5.76273 45.4565 5.42531C45.6852 4.1843 46.5965 3.20891 47.069 2.56386C47.2807 2.30249 47.3582 2.43899 47.2336 2.63339ZM47.0355 2.35101L46.9286 2.46472C46.4559 2.97148 45.3579 4.20748 44.9919 5.33875C44.9216 5.54876 44.7164 5.64241 44.8194 5.31605C45.2201 4.11959 46.3238 2.8309 46.8823 2.25878C47.1289 2.02976 47.1862 2.17592 47.0355 2.35101ZM41.3617 4.9125C41.6066 3.86049 42.4248 3.38117 43.8372 3.49809C44.178 5.0683 42.2707 5.70172 41.3617 4.9125Z" fill="#002B64"/>
</svg>
