<svg width="50" height="50" viewBox="0 0 50 50" fill="none" xmlns="http://www.w3.org/2000/svg">
<g clip-path="url(#clip0_223_33)">
<path d="M24.8203 0C12.1266 0 12.9187 5.53235 12.9187 5.53235L12.9344 11.2641H25.0469V12.9837H8.12031C8.12031 12.9837 0 12.0572 0 24.9309C0 37.8015 7.08906 37.3461 7.08906 37.3461H11.3203V31.3725C11.3203 31.3725 11.0922 24.2478 18.2969 24.2478H30.3094C30.3094 24.2478 37.0594 24.3577 37.0594 17.6916V6.66928C37.0594 6.66928 38.0844 0 24.8203 0ZM18.1406 3.85364C19.3453 3.85364 20.3203 4.83354 20.3203 6.04429C20.3203 7.25503 19.3453 8.23492 18.1406 8.23492C17.8543 8.23534 17.5706 8.17896 17.306 8.06901C17.0414 7.95907 16.8009 7.79772 16.5984 7.59422C16.396 7.39072 16.2354 7.14906 16.126 6.88309C16.0166 6.61713 15.9605 6.33208 15.9609 6.04429C15.9609 4.83354 16.9359 3.85364 18.1406 3.85364Z" fill="url(#paint0_linear_223_33)"/>
<path d="M25.1797 49.9891C37.8734 49.9891 37.0812 44.4568 37.0812 44.4568L37.0656 38.725H24.9531V37.0055H41.8781C41.8781 37.0055 50 37.932 50 25.0598C50 12.1876 42.9109 12.6446 42.9109 12.6446H38.6797V18.6166C38.6797 18.6166 38.9078 25.7413 31.7031 25.7413H19.6906C19.6906 25.7413 12.9406 25.6314 12.9406 32.2975V43.3198C12.9406 43.3198 11.9156 49.9891 25.1797 49.9891ZM31.8594 46.1355C31.573 46.1359 31.2894 46.0795 31.0247 45.9696C30.7601 45.8596 30.5197 45.6983 30.3172 45.4948C30.1147 45.2913 29.9541 45.0496 29.8448 44.7837C29.7354 44.5177 29.6793 44.2326 29.6797 43.9448C29.6797 42.7357 30.6547 41.7558 31.8594 41.7558C33.064 41.7558 34.039 42.7341 34.039 43.9448C34.039 45.1572 33.064 46.1355 31.8594 46.1355Z" fill="url(#paint1_linear_223_33)"/>
</g>
<defs>
<linearGradient id="paint0_linear_223_33" x1="4.80469" y1="4.36872" x2="29.6525" y2="29.1751" gradientUnits="userSpaceOnUse">
<stop stop-color="#387EB8"/>
<stop offset="1" stop-color="#366994"/>
</linearGradient>
<linearGradient id="paint1_linear_223_33" x1="20.014" y1="20.2294" x2="46.6945" y2="45.6627" gradientUnits="userSpaceOnUse">
<stop stop-color="#FFE052"/>
<stop offset="1" stop-color="#FFC331"/>
</linearGradient>
<clipPath id="clip0_223_33">
<rect width="50" height="50" fill="white"/>
</clipPath>
</defs>
</svg>
